<?xml version="1.0" encoding="UTF-8" standalone="no"?>
<!DOCTYPE svg PUBLIC "-//W3C//DTD SVG 1.1//EN" "http://www.w3.org/Graphics/SVG/1.1/DTD/svg11.dtd">
<svg width="100%" height="100%" viewBox="0 0 50 50" version="1.1" xmlns="http://www.w3.org/2000/svg" xmlns:xlink="http://www.w3.org/1999/xlink" xml:space="preserve" xmlns:serif="http://www.serif.com/" style="fill-rule:evenodd;clip-rule:evenodd;stroke-linejoin:round;stroke-miterlimit:2;">
    <g transform="matrix(0.675676,1.96307e-33,-1.96307e-33,0.675676,4.72973,1.33227e-15)">
        <path d="M30,41C13.431,41 0,46.828 0,54.017C0,60.357 10.445,65.638 24.275,66.798C25.429,67.017 26.803,67.389 27.667,68C28.209,68.383 28.487,68.674 28.657,68.891C28.993,69.322 29.256,69.464 29.606,69.464C29.956,69.464 30.194,69.315 30.518,68.877C30.678,68.661 30.947,68.374 31.477,68C32.223,67.473 33.349,67.123 34.385,66.896C48.875,65.975 60,60.56 60,54.017C60,46.828 46.569,41 30,41Z" style="fill:url(#_Linear1);"/>
        <path d="M34.385,59.682C48.875,57.56 60,45.079 60,30C60,13.431 46.569,0 30,0C13.431,0 0,13.431 0,30C0,44.611 10.445,56.782 24.275,59.454C25.429,59.96 26.803,60.818 27.667,62.225C28.209,63.108 28.487,63.778 28.657,64.279C28.993,65.273 29.256,65.6 29.606,65.6C29.956,65.6 30.194,65.257 30.518,64.247C30.678,63.749 30.947,63.087 31.477,62.225C32.223,61.01 33.349,60.205 34.385,59.682ZM29.5,74C31.157,74 32.5,72.657 32.5,71C32.5,69.343 31.157,68 29.5,68C27.843,68 26.5,69.343 26.5,71C26.5,72.657 27.843,74 29.5,74Z" style="fill:rgb(48,101,93);"/>
    </g>
    <g transform="matrix(0.0631984,0,0,0.0631984,9.83239,3.16103)">
        <g>
            <path d="M456,112L368,112L368,88C367.965,57.087 342.913,32.035 312,32L168,32C137.087,32.035 112.035,57.087 112,88L112,112L24,112C10.745,112 0,122.745 0,136L0,296C0.042,306.134 6.445,315.15 16,318.528L16,424C16,437.255 26.745,448 40,448L440,448C453.255,448 464,437.255 464,424L464,318.528C473.555,315.15 479.958,306.134 480,296L480,136C480,122.745 469.255,112 456,112ZM128,88C128.026,65.92 145.92,48.026 168,48L312,48C334.08,48.026 351.974,65.92 352,88L352,112L335.68,112L336,88C335.974,74.756 325.244,64.026 312,64L167.704,64C154.46,64.026 143.73,74.756 143.704,88L143.704,88.08L143.92,112L128,112L128,88ZM320,87.888L319.68,112L159.92,112L159.672,88C159.672,83.582 163.254,80 167.672,80L312,80C316.375,80 319.939,83.513 320,87.888ZM448,424C448,428.418 444.418,432 440,432L40,432C35.582,432 32,428.418 32,424L32,320L88,320L88,344C88,348.418 91.582,352 96,352L128,352C132.418,352 136,348.418 136,344L136,320L344,320L344,344C344,348.418 347.582,352 352,352L384,352C388.418,352 392,348.418 392,344L392,320L448,320L448,424ZM104,336L104,296C103.996,293.843 104.885,291.781 106.456,290.304C107.911,288.809 109.914,287.976 112,288C116.418,288 120,291.582 120,296L120,336L104,336ZM360,336L360,296C360,291.582 363.582,288 368,288C370.158,287.993 372.223,288.879 373.704,290.448C375.188,291.913 376.016,293.915 376,296L376,336L360,336ZM464,296C464,300.418 460.418,304 456,304L392,304L392,296C391.943,282.769 381.231,272.057 368,272C354.745,272 344,282.745 344,296L344,304L136,304L136,296C136,282.745 125.255,272 112,272C98.776,272.074 88.074,282.776 88,296L88,304L24,304C19.582,304 16,300.418 16,296L16,136C16,131.582 19.582,128 24,128L456,128C460.418,128 464,131.582 464,136L464,296Z" style="fill:white;fill-rule:nonzero;"/>
        </g>
    </g>
    <g id="Out_line">
    </g>
    <defs>
        <linearGradient id="_Linear1" x1="0" y1="0" x2="1" y2="0" gradientUnits="userSpaceOnUse" gradientTransform="matrix(1.14921e-15,-18.768,18.768,1.14921e-15,29.6057,74)"><stop offset="0" style="stop-color:black;stop-opacity:1"/><stop offset="0.5" style="stop-color:black;stop-opacity:0.25098"/><stop offset="1" style="stop-color:black;stop-opacity:0"/></linearGradient>
    </defs>
</svg>
