<?xml version="1.0" encoding="UTF-8" standalone="no"?>
<!DOCTYPE svg PUBLIC "-//W3C//DTD SVG 1.1//EN" "http://www.w3.org/Graphics/SVG/1.1/DTD/svg11.dtd">
<svg width="100%" height="100%" viewBox="0 0 50 50" version="1.1" xmlns="http://www.w3.org/2000/svg" xmlns:xlink="http://www.w3.org/1999/xlink" xml:space="preserve" xmlns:serif="http://www.serif.com/" style="fill-rule:evenodd;clip-rule:evenodd;stroke-linejoin:round;stroke-miterlimit:2;">
    <g transform="matrix(0.675676,1.96307e-33,-1.96307e-33,0.675676,4.72973,1.33227e-15)">
        <path d="M30,41C13.431,41 0,46.828 0,54.017C0,60.357 10.445,65.638 24.275,66.798C25.429,67.017 26.803,67.389 27.667,68C28.209,68.383 28.487,68.674 28.657,68.891C28.993,69.322 29.256,69.464 29.606,69.464C29.956,69.464 30.194,69.315 30.518,68.877C30.678,68.661 30.947,68.374 31.477,68C32.223,67.473 33.349,67.123 34.385,66.896C48.875,65.975 60,60.56 60,54.017C60,46.828 46.569,41 30,41Z" style="fill:url(#_Linear1);"/>
        <path d="M34.385,59.682C48.875,57.56 60,45.079 60,30C60,13.431 46.569,0 30,0C13.431,0 0,13.431 0,30C0,44.611 10.445,56.782 24.275,59.454C25.429,59.96 26.803,60.818 27.667,62.225C28.209,63.108 28.487,63.778 28.657,64.279C28.993,65.273 29.256,65.6 29.606,65.6C29.956,65.6 30.194,65.257 30.518,64.247C30.678,63.749 30.947,63.087 31.477,62.225C32.223,61.01 33.349,60.205 34.385,59.682ZM29.5,74C31.157,74 32.5,72.657 32.5,71C32.5,69.343 31.157,68 29.5,68C27.843,68 26.5,69.343 26.5,71C26.5,72.657 27.843,74 29.5,74Z" style="fill:rgb(48,101,93);"/>
    </g>
    <g transform="matrix(0.0556043,0,0,0.0556043,10.7654,4.66025)">
        <path d="M470.592,312C465.252,311.995 459.957,312.979 454.976,314.904L386.176,341.352C394.842,334.972 399.97,324.83 399.97,314.068C399.97,296.734 386.667,282.054 369.416,280.352C373.7,272.95 375.97,264.552 376,256C375.917,220.288 357.765,186.942 327.816,167.488C343.392,149.929 352,127.254 352,103.782C352,51.118 308.664,7.782 256,7.782C203.336,7.782 160,51.118 160,103.782C160,127.254 168.608,149.929 184.184,167.488C154.235,186.942 136.083,220.288 136,256C136.023,264.55 138.285,272.947 142.56,280.352C125.301,282.009 111.968,296.682 111.968,314.021C111.968,316.762 112.301,319.492 112.96,322.152C111.36,323.08 109.688,323.992 108.096,324.984L88,337.6L88,320C88,315.611 84.389,312 80,312L16,312C11.611,312 8,315.611 8,320L8,496C8,500.389 11.611,504 16,504L80,504C84.389,504 88,500.389 88,496L88,483.312L106.344,464.968C122.702,448.622 147.348,443.572 168.816,452.168L212.312,469.568C254.166,486.056 301.338,482.568 340.312,460.104L487.424,374.264C497.674,368.284 503.997,357.275 503.997,345.408C503.997,327.082 488.918,312.002 470.592,312ZM72,488L24,488L24,328L72,328L72,488ZM384,314.056C384.016,320.082 381.009,325.73 376,329.08L360.448,339.48C354.407,332.223 345.442,328.014 336,328L315.472,328C315.744,327.68 315.984,327.328 316.272,327.024L334.128,309.168C342.546,300.709 354.01,295.964 365.944,296C375.846,296.009 383.991,304.154 384,314.056ZM192,280L192,264L320,264L320,280L296,280L296,296L324.88,296C324.2,296.624 323.488,297.2 322.832,297.856L304.976,315.712C301.577,319.164 299.048,323.377 297.6,328C276.311,327.953 255.25,323.599 235.688,315.2C223.135,309.842 209.848,306.401 196.272,304.992L189.168,297.888C188.512,297.232 187.8,296.656 187.12,296.032L280,296.032L280,280L192,280ZM176,104C176.053,61.713 209.626,26.398 251.856,24.208L258.688,34.456C262.159,39.647 264.009,45.755 264,52C264,54.194 262.194,56 260,56C257.806,56 256,54.194 256,52L256,40L240,40L240,52C240,62.972 249.028,72 260,72C270.972,72 280,62.972 280,52C280.004,42.603 277.219,33.414 272,25.6C309.107,33.174 336,66.112 336,103.984C336,147.87 299.887,183.984 256,183.984C212.119,183.984 176.009,147.881 176,104ZM196.104,178.896C230.952,206.932 281.048,206.932 315.896,178.896C343.136,195 359.928,224.356 360,256C359.959,267.327 354.116,277.877 344.536,283.92C341.591,285.029 338.737,286.366 336,287.92L336,256C336,251.611 332.389,248 328,248L328,232L312,232L312,248L200,248L200,232L184,232L184,248C179.611,248 176,251.611 176,256L176,287.888C173.262,286.331 170.405,284.993 167.456,283.888C157.891,277.847 152.053,267.313 152,256C152.069,224.355 168.862,194.998 196.104,178.896ZM146.056,296C155.446,296.014 164.595,298.994 172.192,304.512C157.03,305.516 142.133,308.986 128.088,314.784C128.088,314.536 128,314.304 128,314.056C128.009,304.154 136.154,296.009 146.056,296ZM479.36,360.44L332.256,446.256C297.547,466.272 255.53,469.377 218.256,454.68L174.752,437.288C147.35,426.325 115.897,432.783 95.032,453.656L88,460.688L88,356.432L116.608,338.552C150.556,317.584 192.65,314.342 229.408,329.864C251.146,339.215 274.568,344.026 298.232,344L336,344C344.777,344 352,351.223 352,360C352,368.777 344.777,376 336,376L232,376L232,392L336,392C351.382,391.971 364.674,380.854 367.424,365.72L460.72,329.832C463.87,328.618 467.217,327.997 470.592,328C470.609,328 470.626,328 470.642,328C480.188,328 488.042,335.855 488.042,345.4C488.042,351.588 484.741,357.328 479.392,360.44L479.36,360.44Z" style="fill:white;fill-rule:nonzero;"/>
        <path d="M224,104C228.389,104 232,107.611 232,112L248,112C248,98.834 237.166,88 224,88C210.834,88 200,98.834 200,112L216,112C216,107.611 219.611,104 224,104Z" style="fill:white;fill-rule:nonzero;"/>
        <path d="M288,104C292.389,104 296,107.611 296,112L312,112C312,98.834 301.166,88 288,88C274.834,88 264,98.834 264,112L280,112C280,107.611 283.611,104 288,104Z" style="fill:white;fill-rule:nonzero;"/>
    </g>
    <g id="Out_line">
    </g>
    <defs>
        <linearGradient id="_Linear1" x1="0" y1="0" x2="1" y2="0" gradientUnits="userSpaceOnUse" gradientTransform="matrix(1.14921e-15,-18.768,18.768,1.14921e-15,29.6057,74)"><stop offset="0" style="stop-color:black;stop-opacity:1"/><stop offset="0.5" style="stop-color:black;stop-opacity:0.25098"/><stop offset="1" style="stop-color:black;stop-opacity:0"/></linearGradient>
    </defs>
</svg>
