<?xml version="1.0" encoding="UTF-8" standalone="no"?>
<!DOCTYPE svg PUBLIC "-//W3C//DTD SVG 1.1//EN" "http://www.w3.org/Graphics/SVG/1.1/DTD/svg11.dtd">
<svg width="100%" height="100%" viewBox="0 0 50 50" version="1.1" xmlns="http://www.w3.org/2000/svg" xmlns:xlink="http://www.w3.org/1999/xlink" xml:space="preserve" xmlns:serif="http://www.serif.com/" style="fill-rule:evenodd;clip-rule:evenodd;stroke-linejoin:round;stroke-miterlimit:2;">
    <g transform="matrix(0.675676,1.96307e-33,-1.96307e-33,0.675676,4.72973,1.33227e-15)">
        <path d="M30,41C13.431,41 0,46.828 0,54.017C0,60.357 10.445,65.638 24.275,66.798C25.429,67.017 26.803,67.389 27.667,68C28.209,68.383 28.487,68.674 28.657,68.891C28.993,69.322 29.256,69.464 29.606,69.464C29.956,69.464 30.194,69.315 30.518,68.877C30.678,68.661 30.947,68.374 31.477,68C32.223,67.473 33.349,67.123 34.385,66.896C48.875,65.975 60,60.56 60,54.017C60,46.828 46.569,41 30,41Z" style="fill:url(#_Linear1);"/>
        <path d="M34.385,59.682C48.875,57.56 60,45.079 60,30C60,13.431 46.569,0 30,0C13.431,0 0,13.431 0,30C0,44.611 10.445,56.782 24.275,59.454C25.429,59.96 26.803,60.818 27.667,62.225C28.209,63.108 28.487,63.778 28.657,64.279C28.993,65.273 29.256,65.6 29.606,65.6C29.956,65.6 30.194,65.257 30.518,64.247C30.678,63.749 30.947,63.087 31.477,62.225C32.223,61.01 33.349,60.205 34.385,59.682ZM29.5,74C31.157,74 32.5,72.657 32.5,71C32.5,69.343 31.157,68 29.5,68C27.843,68 26.5,69.343 26.5,71C26.5,72.657 27.843,74 29.5,74Z" style="fill:rgb(48,101,93);"/>
    </g>
    <g transform="matrix(1.04972,0,0,1.04972,-1.24304,-4.78033)">
        <g>
            <g transform="matrix(0.0647372,0,0,0.0647372,8.42729,4.03116)">
                <path d="M199.86,116.29L324.8,116.29C327.417,116.29 329.57,114.137 329.57,111.52C329.57,108.903 327.417,106.75 324.8,106.75L199.86,106.75C197.243,106.75 195.09,108.903 195.09,111.52C195.09,114.137 197.243,116.29 199.86,116.29Z" style="fill:white;fill-rule:nonzero;"/>
            </g>
            <g transform="matrix(0.0647372,0,0,0.0647372,8.42729,4.03116)">
                <path d="M329.57,157C329.57,154.383 327.417,152.23 324.8,152.23L199.86,152.23C199.787,152.227 199.714,152.225 199.642,152.225C197.025,152.225 194.872,154.378 194.872,156.995C194.872,159.612 197.025,161.765 199.642,161.765C199.714,161.765 199.787,161.763 199.86,161.76L324.8,161.76C327.413,161.76 329.565,159.613 329.57,157Z" style="fill:white;fill-rule:nonzero;"/>
            </g>
            <g transform="matrix(0.0647372,0,0,0.0647372,8.42729,4.03116)">
                <path d="M326.62,298.17L358.32,319.11C359.9,320.14 361.95,320.14 363.53,319.11C365.116,318.082 365.95,316.206 365.65,314.34L360.48,282.66C373.64,272.3 380.85,258.86 380.85,244.53C380.85,227.07 370.07,211.01 351.64,200.46C373.59,183.35 387.13,159.98 387.13,134.25C387.13,81.92 331.13,39.34 262.33,39.34C193.53,39.34 137.53,82 137.53,134.28C137.53,154.54 145.69,173.72 161.18,189.95L135.18,230.45C134.685,231.219 134.422,232.115 134.422,233.03C134.422,235.642 136.568,237.793 139.18,237.8C139.654,237.799 140.126,237.728 140.58,237.59L203.84,218.16C212.865,221.771 222.219,224.497 231.77,226.3C229.056,232.005 227.646,238.243 227.64,244.56C227.64,275.45 262.01,300.56 304.25,300.56C311.771,300.578 319.272,299.776 326.62,298.17ZM202.62,208.55L150.17,224.65L171.22,191.89C172.446,189.989 172.156,187.463 170.53,185.89C155.14,170.89 147.01,153.07 147.01,134.27C147.01,87.2 198.72,48.9 262.28,48.9C325.84,48.9 377.6,87.21 377.6,134.28C377.6,159.11 363.2,181.5 340.27,197.12C340.055,197.239 339.851,197.376 339.66,197.53C319.2,211.27 292.06,219.65 262.33,219.65C242.981,219.722 223.805,215.984 205.9,208.65C204.868,208.243 203.725,208.207 202.67,208.55L202.62,208.55ZM237.12,244.55C237.144,238.691 238.695,232.937 241.62,227.86C248.472,228.729 255.373,229.166 262.28,229.17C292.99,229.17 321.13,220.69 342.9,206.65C360.71,215.42 371.27,229.45 371.27,244.55C371.27,256.55 364.59,268 352.47,276.74C351.008,277.793 350.266,279.592 350.56,281.37L354.44,305.14L330.11,289.07C329.001,288.342 327.639,288.107 326.35,288.42C319.095,290.177 311.655,291.057 304.19,291.04C267.26,291.05 237.17,270.2 237.17,244.56L237.12,244.55Z" style="fill:white;fill-rule:nonzero;"/>
            </g>
            <g transform="matrix(0.0647372,0,0,0.0647372,8.42729,4.03116)">
                <path d="M202.55,434.57L159.44,434.57L129.92,362.57C125.299,351.206 116.187,342.238 104.75,337.8C116.906,330.127 124.298,316.718 124.298,302.343C124.298,279.341 105.37,260.413 82.368,260.413C59.366,260.413 40.438,279.341 40.438,302.343C40.438,317.487 48.643,331.499 61.85,338.91C48.725,345.514 40.402,358.997 40.38,373.69L40.38,466C40.38,468.617 42.533,470.77 45.15,470.77C47.767,470.77 49.92,468.617 49.92,466L49.92,373.66C49.936,357.547 63.187,344.292 79.3,344.27L88.48,344.27C102.766,344.236 115.712,352.919 121.1,366.15L151.83,441.15C152.55,442.951 154.3,444.142 156.24,444.15L202.55,444.15C207.762,444.15 212.05,448.438 212.05,453.65C212.05,458.862 207.762,463.15 202.55,463.15L140.45,463.15C135.137,463.16 130.325,459.924 128.33,455L105.48,399.29C104.803,397.396 102.999,396.125 100.988,396.125C98.371,396.125 96.218,398.278 96.218,400.895C96.218,401.587 96.369,402.272 96.66,402.9L119.51,458.62C122.969,467.114 131.279,472.689 140.45,472.67L202.55,472.67C212.99,472.67 221.58,464.08 221.58,453.64C221.58,443.2 212.99,434.61 202.55,434.61L202.55,434.57ZM50,302.35C50,302.347 50,302.343 50,302.34C50,284.571 64.621,269.95 82.39,269.95C100.159,269.95 114.78,284.571 114.78,302.34C114.78,320.109 100.159,334.73 82.39,334.73C64.633,334.708 50.027,320.107 50,302.35Z" style="fill:white;fill-rule:nonzero;"/>
            </g>
            <g transform="matrix(0.0647372,0,0,0.0647372,8.42729,4.03116)">
                <path d="M450.15,338.88C463.351,331.47 471.551,317.463 471.551,302.325C471.551,279.328 452.628,260.405 429.631,260.405C406.635,260.405 387.711,279.328 387.711,302.325C387.711,316.694 395.1,330.098 407.25,337.77C395.813,342.208 386.701,351.176 382.08,362.54L352.56,434.54L309.45,434.54C299.01,434.54 290.42,443.13 290.42,453.57C290.42,464.01 299.01,472.6 309.45,472.6L371.55,472.6C380.721,472.619 389.031,467.044 392.49,458.55L415.34,402.83C415.631,402.202 415.782,401.517 415.782,400.825C415.782,398.208 413.629,396.055 411.012,396.055C409.001,396.055 407.197,397.326 406.52,399.22L383.67,455C381.669,459.917 376.858,463.143 371.55,463.13L309.45,463.13C304.238,463.13 299.95,458.842 299.95,453.63C299.95,448.418 304.238,444.13 309.45,444.13L355.76,444.13C357.7,444.122 359.45,442.931 360.17,441.13L390.9,366.13C396.288,352.899 409.234,344.216 423.52,344.25L432.7,344.25C448.813,344.272 462.064,357.527 462.08,373.64L462.08,466C462.08,468.617 464.233,470.77 466.85,470.77C469.467,470.77 471.62,468.617 471.62,466L471.62,373.66C471.598,358.967 463.275,345.484 450.15,338.88ZM397.25,302.35C397.25,302.347 397.25,302.343 397.25,302.34C397.25,284.571 411.871,269.95 429.64,269.95C447.409,269.95 462.03,284.571 462.03,302.34C462.03,320.109 447.409,334.73 429.64,334.73C411.883,334.708 397.277,320.107 397.25,302.35Z" style="fill:white;fill-rule:nonzero;"/>
            </g>
        </g>
    </g>
    <defs>
        <linearGradient id="_Linear1" x1="0" y1="0" x2="1" y2="0" gradientUnits="userSpaceOnUse" gradientTransform="matrix(1.14921e-15,-18.768,18.768,1.14921e-15,29.6057,74)"><stop offset="0" style="stop-color:black;stop-opacity:1"/><stop offset="0.5" style="stop-color:black;stop-opacity:0.25"/><stop offset="1" style="stop-color:black;stop-opacity:0"/></linearGradient>
    </defs>
</svg>
