<?xml version="1.0" encoding="UTF-8" standalone="no"?>
<!DOCTYPE svg PUBLIC "-//W3C//DTD SVG 1.1//EN" "http://www.w3.org/Graphics/SVG/1.1/DTD/svg11.dtd">
<svg width="100%" height="100%" viewBox="0 0 50 50" version="1.1" xmlns="http://www.w3.org/2000/svg" xmlns:xlink="http://www.w3.org/1999/xlink" xml:space="preserve" xmlns:serif="http://www.serif.com/" style="fill-rule:evenodd;clip-rule:evenodd;stroke-linejoin:round;stroke-miterlimit:2;">
    <g transform="matrix(0.675676,1.96307e-33,-1.96307e-33,0.675676,4.72973,1.33227e-15)">
        <path d="M30,41C13.431,41 0,46.828 0,54.017C0,60.357 10.445,65.638 24.275,66.798C25.429,67.017 26.803,67.389 27.667,68C28.209,68.383 28.487,68.674 28.657,68.891C28.993,69.322 29.256,69.464 29.606,69.464C29.956,69.464 30.194,69.315 30.518,68.877C30.678,68.661 30.947,68.374 31.477,68C32.223,67.473 33.349,67.123 34.385,66.896C48.875,65.975 60,60.56 60,54.017C60,46.828 46.569,41 30,41Z" style="fill:url(#_Linear1);"/>
        <path d="M34.385,59.682C48.875,57.56 60,45.079 60,30C60,13.431 46.569,0 30,0C13.431,0 0,13.431 0,30C0,44.611 10.445,56.782 24.275,59.454C25.429,59.96 26.803,60.818 27.667,62.225C28.209,63.108 28.487,63.778 28.657,64.279C28.993,65.273 29.256,65.6 29.606,65.6C29.956,65.6 30.194,65.257 30.518,64.247C30.678,63.749 30.947,63.087 31.477,62.225C32.223,61.01 33.349,60.205 34.385,59.682ZM29.5,74C31.157,74 32.5,72.657 32.5,71C32.5,69.343 31.157,68 29.5,68C27.843,68 26.5,69.343 26.5,71C26.5,72.657 27.843,74 29.5,74Z" style="fill:rgb(48,101,93);"/>
    </g>
    <g transform="matrix(0.0589001,0,0,0.0589001,9.92159,17.9696)">
        <g transform="matrix(1,0,0,1,0,-231)">
            <path d="M490.667,261.334L490.667,218.667C490.667,186.24 469.76,165.334 437.334,165.334L192,165.334C159.573,165.334 138.667,186.241 138.667,218.667L138.667,261L34.88,261.227L21.333,261.227L21.333,80.32C21.333,74.987 17.493,70.187 12.266,69.44C5.653,68.48 0,73.6 0,80L0,431.68C0,437.013 3.84,441.813 9.067,442.56C15.68,443.52 21.334,438.4 21.334,432L21.334,368L490.667,368L490.667,431.68C490.667,437.013 494.507,441.813 499.734,442.56C506.347,443.52 512,438.4 512,432L512,282.667C512,268.16 505.173,261.44 490.667,261.334ZM160,218.667C160,190.827 180.053,186.667 192,186.667L437.333,186.667C449.28,186.667 469.333,190.827 469.333,218.667L469.333,261.334L160,261.334L160,218.667ZM490.666,346.667L21.333,346.667L21.333,282.667L490.666,282.667L490.666,346.667Z" style="fill:white;fill-rule:nonzero;"/>
        </g>
        <g transform="matrix(1,0,0,1,0,-231)">
            <path d="M80.5,142.5C47.777,142.5 21.25,169.027 21.25,201.75C21.25,234.473 47.777,261 80.5,261C113.223,261 139.75,234.473 139.75,201.75C139.75,169.027 113.223,142.5 80.5,142.5ZM80.5,242C58.271,242 40.25,223.979 40.25,201.75C40.25,179.521 58.271,161.5 80.5,161.5C102.729,161.5 120.75,179.521 120.75,201.75C120.75,223.979 102.73,242 80.5,242Z" style="fill:white;fill-rule:nonzero;"/>
        </g>
    </g>
    <g id="Out_line">
    </g>
    <defs>
        <linearGradient id="_Linear1" x1="0" y1="0" x2="1" y2="0" gradientUnits="userSpaceOnUse" gradientTransform="matrix(1.14921e-15,-18.768,18.768,1.14921e-15,29.6057,74)"><stop offset="0" style="stop-color:black;stop-opacity:1"/><stop offset="0.5" style="stop-color:black;stop-opacity:0.25098"/><stop offset="1" style="stop-color:black;stop-opacity:0"/></linearGradient>
    </defs>
</svg>
