<?xml version="1.0" encoding="UTF-8" standalone="no"?>
<!DOCTYPE svg PUBLIC "-//W3C//DTD SVG 1.1//EN" "http://www.w3.org/Graphics/SVG/1.1/DTD/svg11.dtd">
<svg width="100%" height="100%" viewBox="0 0 50 50" version="1.1" xmlns="http://www.w3.org/2000/svg" xmlns:xlink="http://www.w3.org/1999/xlink" xml:space="preserve" xmlns:serif="http://www.serif.com/" style="fill-rule:evenodd;clip-rule:evenodd;stroke-linejoin:round;stroke-miterlimit:2;">
    <g transform="matrix(0.675676,1.96307e-33,-1.96307e-33,0.675676,4.72973,1.33227e-15)">
        <path d="M30,41C13.431,41 0,46.828 0,54.017C0,60.357 10.445,65.638 24.275,66.798C25.429,67.017 26.803,67.389 27.667,68C28.209,68.383 28.487,68.674 28.657,68.891C28.993,69.322 29.256,69.464 29.606,69.464C29.956,69.464 30.194,69.315 30.518,68.877C30.678,68.661 30.947,68.374 31.477,68C32.223,67.473 33.349,67.123 34.385,66.896C48.875,65.975 60,60.56 60,54.017C60,46.828 46.569,41 30,41Z" style="fill:url(#_Linear1);"/>
        <path d="M34.385,59.682C48.875,57.56 60,45.079 60,30C60,13.431 46.569,0 30,0C13.431,0 0,13.431 0,30C0,44.611 10.445,56.782 24.275,59.454C25.429,59.96 26.803,60.818 27.667,62.225C28.209,63.108 28.487,63.778 28.657,64.279C28.993,65.273 29.256,65.6 29.606,65.6C29.956,65.6 30.194,65.257 30.518,64.247C30.678,63.749 30.947,63.087 31.477,62.225C32.223,61.01 33.349,60.205 34.385,59.682ZM29.5,74C31.157,74 32.5,72.657 32.5,71C32.5,69.343 31.157,68 29.5,68C27.843,68 26.5,69.343 26.5,71C26.5,72.657 27.843,74 29.5,74Z" style="fill:rgb(48,101,93);"/>
    </g>
    <g transform="matrix(0.0578303,0,0,0.0578303,10.1954,3.36509)">
        <rect x="360" y="432" width="56" height="16" style="fill:white;fill-rule:nonzero;"/>
        <path d="M288,222C295.72,222 302,215.72 302,208C302,200.28 295.72,194 288,194C280.28,194 274,200.28 274,208C274,215.72 280.28,222 288,222ZM288,206C289.104,206 290,206.896 290,208C290,210.2 286,210.2 286,208C286,206.896 286.896,206 288,206Z" style="fill:white;fill-rule:nonzero;"/>
        <path d="M368,222C375.72,222 382,215.72 382,208C382,200.28 375.72,194 368,194C360.28,194 354,200.28 354,208C354,215.72 360.28,222 368,222ZM368,206C369.104,206 370,206.896 370,208C370,210.2 366,210.2 366,208C366,206.896 366.896,206 368,206Z" style="fill:white;fill-rule:nonzero;"/>
        <path d="M328,278C344.544,278 358,264.536 358,248L346,248C346,257.92 337.928,266 328,266C318.072,266 310,257.92 310,248L298,248C298,264.536 311.456,278 328,278Z" style="fill:white;fill-rule:nonzero;"/>
        <path d="M496,280C496,262.352 481.648,248 464,248L464,155.616C464,80.832 407.144,19.576 334.576,16.152C332.248,16.048 323.752,16.048 321.432,16.152C248.856,19.576 192,80.832 192,155.616L192,248C174.352,248 160,262.352 160,280C160,293.24 168.088,304.632 179.584,309.496C167.6,319.776 160,335.016 160,352C160,361.376 162.352,370.608 166.816,378.792C167.496,382.016 169.528,389.928 174.296,399.216L166.616,435.344L136.384,374.88L142.04,346.6C143.808,337.76 139.416,328.768 131.352,324.736C123.616,320.864 114.328,322.392 108.208,328.496L102.08,334.624L48.304,313.12C41.048,310.208 32.832,311.096 26.352,315.488C19.872,319.88 16,327.152 16,334.976C16,343.408 20.544,351.24 27.864,355.424L73.2,381.328L104.304,490.192C105.288,493.632 108.432,496 112,496L488,496C490.408,496 492.68,494.92 494.2,493.056C495.72,491.192 496.32,488.744 495.84,486.392L478.432,401.952C482.856,394.936 486.368,387.528 488.768,379.848L489.24,378.312C489.88,376.2 490.648,374.12 491.424,372.032C493.568,366.216 496,359.632 496,352C496,335.016 488.4,319.776 476.416,309.496C487.912,304.632 496,293.24 496,280ZM118.032,480L87.688,373.808C87.112,371.8 85.776,370.096 83.968,369.056L35.8,341.536C33.456,340.184 32,337.68 32,334.976C32,332.432 33.208,330.144 35.32,328.72C37.432,327.296 40,327.008 42.36,327.96L101.024,351.432C103.992,352.608 107.392,351.928 109.656,349.656L119.512,339.8C120.744,338.576 122.632,338.256 124.192,339.04C125.824,339.856 126.704,341.672 126.352,343.456L120.16,374.432C119.808,376.176 120.056,377.984 120.848,379.584L171.056,480L118.032,480ZM178.096,458.296L194.68,380.256C194.736,379.984 194.784,379.712 194.816,379.424C195.152,376.208 197.376,373.528 199.984,372.72L250.312,360.992L262.496,402.264C263.52,405.744 266.704,408 270.168,408C270.872,408 271.592,407.904 272.304,407.712L320,394.512L320,480L232,480L232,448L216,448L216,480L188.944,480L178.096,458.296ZM280.448,353.976C280.88,355.624 281.648,357.16 283,358.256L310.768,380.472L275.608,390.2L265.92,357.36L280.448,353.976ZM248,176L304.768,176C326.832,176 345.976,161.048 351.272,139.888L359.96,109.376L370.184,145.696C374.56,163.216 390.04,175.472 408.008,175.92L408.008,216C408.008,260.112 372.12,296 328.008,296C283.896,296 248.008,260.112 248.008,216L248.008,176L248,176ZM373,358.248C374.336,357.176 375.088,355.672 375.536,354.056L389.448,357.432L377.272,390.2L344.976,380.656L373,358.248ZM328,312C339.232,312 349.976,309.96 360,306.4L360,348.16L328,373.76L296,348.16L296,306.4C306.024,309.96 316.768,312 328,312ZM440,480L440,448L424,448L424,480L336,480L336,394.704L379.904,407.672C383.928,408.88 388.2,406.736 389.672,402.792L405.104,361.248L451.864,372.608C454.968,373.536 457.192,376.216 457.648,380.208L478.184,480L440,480ZM464,296L440,296C435.584,296 432,299.576 432,304C432,308.424 435.584,312 440,312C462.056,312 480,329.944 480,352C480,356.776 478.256,361.488 476.416,366.48C475.528,368.88 474.648,371.28 473.912,373.712L473.504,375.04C473.4,375.368 473.224,375.68 473.12,376C471.52,367.152 465.16,359.888 456.056,357.16L376,337.712L376,299.016C404.648,282.384 424,251.448 424,216.008L424,176.008L432,176.008L432,160.008L408.984,160.008C397.952,160.008 388.376,152.528 385.64,141.6L367.696,77.84C366.728,74.392 363.592,72.008 360.008,72L360,72C356.424,72 353.288,74.376 352.304,77.816L335.808,135.768C332.24,150.032 319.48,160 304.768,160L224,160L224,176L232,176L232,216C232,251.44 251.352,282.384 280,299.008L280,337.648L195.864,357.272C188.944,359.36 183.496,364.36 180.736,370.76C177.672,365.008 176,358.568 176,352C176,329.944 193.944,312 216,312C220.416,312 224,308.424 224,304C224,299.576 220.416,296 216,296L192,296C183.176,296 176,288.824 176,280C176,271.176 183.176,264 192,264L200,264C204.416,264 208,260.424 208,256L208,155.616C208,89.392 258.16,35.152 322.2,32.136C323.992,32.04 332,32.04 333.808,32.136C397.84,35.16 448,89.392 448,155.616L448,256C448,260.424 451.584,264 456,264L464,264C472.824,264 480,271.176 480,280C480,288.824 472.824,296 464,296Z" style="fill:white;fill-rule:nonzero;"/>
        <rect x="136" y="176" width="16" height="24" style="fill:white;fill-rule:nonzero;"/>
        <rect x="112" y="160" width="24" height="16" style="fill:white;fill-rule:nonzero;"/>
        <rect x="136" y="136" width="16" height="24" style="fill:white;fill-rule:nonzero;"/>
        <rect x="152" y="160" width="24" height="16" style="fill:white;fill-rule:nonzero;"/>
        <rect x="40" y="96" width="16" height="24" style="fill:white;fill-rule:nonzero;"/>
        <rect x="16" y="80" width="24" height="16" style="fill:white;fill-rule:nonzero;"/>
        <rect x="40" y="56" width="16" height="24" style="fill:white;fill-rule:nonzero;"/>
        <rect x="56" y="80" width="24" height="16" style="fill:white;fill-rule:nonzero;"/>
        <rect x="120" y="80" width="16" height="16" style="fill:white;fill-rule:nonzero;"/>
        <rect x="32" y="168" width="16" height="16" style="fill:white;fill-rule:nonzero;"/>
        <rect x="80" y="224" width="16" height="16" style="fill:white;fill-rule:nonzero;"/>
    </g>
    <g id="Out_line">
    </g>
    <defs>
        <linearGradient id="_Linear1" x1="0" y1="0" x2="1" y2="0" gradientUnits="userSpaceOnUse" gradientTransform="matrix(1.14921e-15,-18.768,18.768,1.14921e-15,29.6057,74)"><stop offset="0" style="stop-color:black;stop-opacity:1"/><stop offset="0.5" style="stop-color:black;stop-opacity:0.25098"/><stop offset="1" style="stop-color:black;stop-opacity:0"/></linearGradient>
    </defs>
</svg>
