<?xml version="1.0" encoding="UTF-8" standalone="no"?>
<!DOCTYPE svg PUBLIC "-//W3C//DTD SVG 1.1//EN" "http://www.w3.org/Graphics/SVG/1.1/DTD/svg11.dtd">
<svg width="100%" height="100%" viewBox="0 0 50 50" version="1.1" xmlns="http://www.w3.org/2000/svg" xmlns:xlink="http://www.w3.org/1999/xlink" xml:space="preserve" xmlns:serif="http://www.serif.com/" style="fill-rule:evenodd;clip-rule:evenodd;stroke-linejoin:round;stroke-miterlimit:2;">
    <g transform="matrix(0.675676,1.96307e-33,-1.96307e-33,0.675676,4.72973,1.33227e-15)">
        <path d="M30,41C13.431,41 0,46.828 0,54.017C0,60.357 10.445,65.638 24.275,66.798C25.429,67.017 26.803,67.389 27.667,68C28.209,68.383 28.487,68.674 28.657,68.891C28.993,69.322 29.256,69.464 29.606,69.464C29.956,69.464 30.194,69.315 30.518,68.877C30.678,68.661 30.947,68.374 31.477,68C32.223,67.473 33.349,67.123 34.385,66.896C48.875,65.975 60,60.56 60,54.017C60,46.828 46.569,41 30,41Z" style="fill:url(#_Linear1);"/>
        <path d="M34.385,59.682C48.875,57.56 60,45.079 60,30C60,13.431 46.569,0 30,0C13.431,0 0,13.431 0,30C0,44.611 10.445,56.782 24.275,59.454C25.429,59.96 26.803,60.818 27.667,62.225C28.209,63.108 28.487,63.778 28.657,64.279C28.993,65.273 29.256,65.6 29.606,65.6C29.956,65.6 30.194,65.257 30.518,64.247C30.678,63.749 30.947,63.087 31.477,62.225C32.223,61.01 33.349,60.205 34.385,59.682ZM29.5,74C31.157,74 32.5,72.657 32.5,71C32.5,69.343 31.157,68 29.5,68C27.843,68 26.5,69.343 26.5,71C26.5,72.657 27.843,74 29.5,74Z" style="fill:rgb(48,101,93);"/>
    </g>
    <g transform="matrix(0.0538554,0,0,0.0538554,11.213,5.16637)">
        <g>
            <path d="M504.5,497L479.936,497L479.936,393.912C484.845,389.596 487.952,383.277 487.952,376.242C487.952,363.266 477.395,352.71 464.42,352.71L415.353,352.71L407.776,231.484C407.529,227.531 404.251,224.452 400.291,224.452L368.226,224.452C364.266,224.452 360.988,227.531 360.741,231.484L353.164,352.71L335.191,352.71L327.614,231.484C327.367,227.531 324.089,224.452 320.129,224.452L288.065,224.452C284.105,224.452 280.827,227.531 280.58,231.484L273.003,352.71L255.03,352.71L247.453,231.484C247.206,227.531 243.928,224.452 239.968,224.452L207.904,224.452C203.944,224.452 200.666,227.531 200.419,231.484L192.842,352.71L171.952,352.71L167.306,143.608C167.216,139.532 163.885,136.275 159.808,136.275L111.711,136.275C107.634,136.275 104.303,139.532 104.213,143.608L98.854,384.775L39.564,384.775C26.588,384.775 16.032,395.332 16.032,408.307C16.032,415.342 19.139,421.661 24.048,425.977L24.048,497L7.5,497C3.358,497 0,500.358 0,504.5C0,508.642 3.358,512 7.5,512L504.5,512C508.642,512 512,508.642 512,504.5C512,500.358 508.642,497 504.5,497ZM98.139,416.84L71.632,416.84C67.49,416.84 64.132,420.198 64.132,424.34C64.132,428.482 67.49,431.84 71.632,431.84L97.806,431.84L96.358,497L39.048,497L39.048,431.826C39.22,431.83 39.391,431.839 39.564,431.839C43.706,431.839 47.064,428.481 47.064,424.339C47.064,420.197 43.706,416.839 39.564,416.839C34.859,416.839 31.032,413.011 31.032,408.307C31.032,403.602 34.86,399.775 39.564,399.775L98.518,399.775L98.139,416.84ZM375.271,239.452L393.244,239.452L400.323,352.71L368.193,352.71L375.271,239.452ZM295.11,239.452L313.083,239.452L320.162,352.71L288.032,352.71L295.11,239.452ZM214.949,239.452L232.922,239.452L240,352.71L207.87,352.71L214.949,239.452ZM128.259,497L111.363,497L119.044,151.274L152.471,151.274L156.948,352.71L143.775,352.71C130.799,352.71 120.242,363.267 120.242,376.242C120.242,383.277 123.349,389.596 128.259,393.912L128.259,497ZM464.42,384.774L448.388,384.774C444.246,384.774 440.888,388.132 440.888,392.274C440.888,396.416 444.246,399.774 448.388,399.774L464.42,399.774C464.593,399.774 464.764,399.764 464.936,399.761L464.936,497L143.258,497L143.258,399.761C143.43,399.765 143.601,399.774 143.774,399.774L416.329,399.774C420.471,399.774 423.829,396.416 423.829,392.274C423.829,388.132 420.471,384.774 416.329,384.774L143.774,384.774C139.069,384.774 135.241,380.946 135.241,376.242C135.241,371.538 139.069,367.71 143.774,367.71L464.419,367.71C469.124,367.71 472.952,371.537 472.952,376.242C472.952,380.947 469.124,384.774 464.42,384.774Z" style="fill:white;fill-rule:nonzero;"/>
        </g>
        <g>
            <path d="M416.323,0C393.729,0 372.189,7.885 354.97,22.334C342.608,13.058 327.626,8.016 312.113,8.016C293.281,8.016 275.303,15.451 261.94,28.596C255.013,25.609 247.52,24.048 239.968,24.048C217.67,24.048 197.793,37.399 189.069,57.38C186.059,56.537 182.977,56.112 179.847,56.112C164.354,56.112 151.031,66.187 146.272,80.3C145.443,80.208 144.609,80.161 143.774,80.161C130.798,80.161 120.241,90.718 120.241,103.693C120.242,107.836 123.6,111.194 127.742,111.194C131.884,111.194 135.242,107.836 135.242,103.694C135.242,98.989 139.07,95.162 143.775,95.162C145.263,95.162 146.722,95.583 148.11,96.414C150.358,97.759 153.144,97.833 155.461,96.612C157.777,95.39 159.289,93.048 159.447,90.433C160.104,79.6 169.065,71.114 179.846,71.114C183.255,71.114 186.62,72.035 189.846,73.852C191.867,74.991 194.304,75.129 196.443,74.226C198.582,73.323 200.181,71.481 200.776,69.237C205.485,51.463 221.601,39.049 239.967,39.049C246.927,39.049 253.822,40.869 259.906,44.311C263.016,46.071 266.939,45.392 269.275,42.686C280.071,30.186 295.685,23.017 312.112,23.017C326.157,23.017 339.661,28.26 350.135,37.779C353.058,40.435 357.54,40.37 360.384,37.629C375.524,23.036 395.39,15 416.323,15C460.809,15 497,51.192 497,95.677C497,140.162 460.809,176.354 416.323,176.354C386.788,176.354 359.637,160.228 345.466,134.269C343.576,130.807 339.327,129.401 335.745,131.051C328.223,134.516 320.272,136.273 312.113,136.273C295.686,136.273 280.072,129.104 269.276,116.604C266.94,113.899 263.018,113.219 259.907,114.979C253.823,118.421 246.928,120.241 239.968,120.241C227.294,120.241 215.566,114.438 207.793,104.32C206.381,102.483 204.2,101.401 201.883,101.389L201.846,101.389C199.543,101.389 197.366,102.448 195.944,104.261C191.976,109.322 186.109,112.224 179.847,112.224C175.705,112.224 172.347,115.582 172.347,119.724C172.347,123.866 175.705,127.224 179.847,127.224C187.796,127.224 195.356,124.568 201.516,119.75C211.807,129.678 225.429,135.24 239.968,135.24C247.52,135.24 255.013,133.679 261.94,130.693C275.303,143.838 293.282,151.273 312.113,151.273C320.196,151.273 328.11,149.916 335.72,147.233C353.244,174.608 383.544,191.354 416.323,191.354C469.08,191.354 512,148.433 512,95.677C512,42.921 469.08,0 416.323,0Z" style="fill:white;fill-rule:nonzero;"/>
        </g>
        <g>
            <path d="M191.871,416.839C187.729,416.839 184.371,420.197 184.371,424.339L184.371,440.371C184.371,444.513 187.729,447.871 191.871,447.871C196.013,447.871 199.371,444.513 199.371,440.371L199.371,424.339C199.371,420.197 196.013,416.839 191.871,416.839Z" style="fill:white;fill-rule:nonzero;"/>
        </g>
        <g>
            <path d="M223.936,416.839C219.794,416.839 216.436,420.197 216.436,424.339L216.436,440.371C216.436,444.513 219.794,447.871 223.936,447.871C228.078,447.871 231.436,444.513 231.436,440.371L231.436,424.339C231.436,420.197 228.078,416.839 223.936,416.839Z" style="fill:white;fill-rule:nonzero;"/>
        </g>
        <g>
            <path d="M256,416.839C251.858,416.839 248.5,420.197 248.5,424.339L248.5,440.371C248.5,444.513 251.858,447.871 256,447.871C260.142,447.871 263.5,444.513 263.5,440.371L263.5,424.339C263.5,420.197 260.142,416.839 256,416.839Z" style="fill:white;fill-rule:nonzero;"/>
        </g>
        <g>
            <path d="M288.064,416.839C283.922,416.839 280.564,420.197 280.564,424.339L280.564,440.371C280.564,444.513 283.922,447.871 288.064,447.871C292.206,447.871 295.564,444.513 295.564,440.371L295.564,424.339C295.564,420.197 292.207,416.839 288.064,416.839Z" style="fill:white;fill-rule:nonzero;"/>
        </g>
        <g>
            <path d="M320.129,416.839C315.987,416.839 312.629,420.197 312.629,424.339L312.629,440.371C312.629,444.513 315.987,447.871 320.129,447.871C324.271,447.871 327.629,444.513 327.629,440.371L327.629,424.339C327.629,420.197 324.271,416.839 320.129,416.839Z" style="fill:white;fill-rule:nonzero;"/>
        </g>
        <g>
            <path d="M352.193,416.839C348.051,416.839 344.693,420.197 344.693,424.339L344.693,440.371C344.693,444.513 348.051,447.871 352.193,447.871C356.335,447.871 359.693,444.513 359.693,440.371L359.693,424.339C359.693,420.197 356.335,416.839 352.193,416.839Z" style="fill:white;fill-rule:nonzero;"/>
        </g>
        <g>
            <path d="M384.258,416.839C380.116,416.839 376.758,420.197 376.758,424.339L376.758,440.371C376.758,444.513 380.116,447.871 384.258,447.871C388.4,447.871 391.758,444.513 391.758,440.371L391.758,424.339C391.758,420.197 388.4,416.839 384.258,416.839Z" style="fill:white;fill-rule:nonzero;"/>
        </g>
        <g>
            <path d="M416.323,416.839C412.181,416.839 408.823,420.197 408.823,424.339L408.823,440.371C408.823,444.513 412.181,447.871 416.323,447.871C420.465,447.871 423.823,444.513 423.823,440.371L423.823,424.339C423.823,420.197 420.465,416.839 416.323,416.839Z" style="fill:white;fill-rule:nonzero;"/>
        </g>
    </g>
    <g id="Out_line">
    </g>
    <defs>
        <linearGradient id="_Linear1" x1="0" y1="0" x2="1" y2="0" gradientUnits="userSpaceOnUse" gradientTransform="matrix(1.14921e-15,-18.768,18.768,1.14921e-15,29.6057,74)"><stop offset="0" style="stop-color:black;stop-opacity:1"/><stop offset="0.5" style="stop-color:black;stop-opacity:0.25098"/><stop offset="1" style="stop-color:black;stop-opacity:0"/></linearGradient>
    </defs>
</svg>
