<?xml version="1.0" encoding="utf-8"?>
<!-- Generator: Adobe Illustrator 24.3.0, SVG Export Plug-In . SVG Version: 6.00 Build 0)  -->
<svg version="1.1" id="Layer_1" xmlns:serif="http://www.serif.com/"
	 xmlns="http://www.w3.org/2000/svg" xmlns:xlink="http://www.w3.org/1999/xlink" x="0px" y="0px" viewBox="0 0 595.3 841.9"
	 style="enable-background:new 0 0 595.3 841.9;" xml:space="preserve">
<style type="text/css">
	.st0{fill-rule:evenodd;clip-rule:evenodd;fill:url(#SVGID_1_);}
	.st1{fill-rule:evenodd;clip-rule:evenodd;fill:#30655D;}
	.st2{fill:none;stroke:#231F20;stroke-width:9;stroke-miterlimit:10;}
	.st3{fill:none;stroke:#FFFFFF;stroke-width:9;stroke-miterlimit:10;}
	.st4{fill:none;stroke:#FFFFFF;stroke-width:5;stroke-miterlimit:10;}
	.st5{fill:none;stroke:#FFFFFF;stroke-width:2;stroke-miterlimit:10;}
</style>
<g transform="matrix(0.675676,1.96307e-33,-1.96307e-33,0.675676,4.72973,1.33227e-15)">
	
		<linearGradient id="SVGID_1_" gradientUnits="userSpaceOnUse" x1="-7" y1="1245.9652" x2="-6" y2="1245.9652" gradientTransform="matrix(9.244554e-15 -150.9748 -150.9748 -9.244554e-15 188542.875 6.6789)">
		<stop  offset="0" style="stop-color:#000000"/>
		<stop  offset="0.5" style="stop-color:#000000;stop-opacity:0.251"/>
		<stop  offset="1" style="stop-color:#000000;stop-opacity:0"/>
	</linearGradient>
	<path class="st0" d="M433.5,670.6c-197.3,0-357.2,69.4-357.2,155c0,75.5,124.4,138.4,289,152.2c13.7,2.6,30.1,7,40.4,14.3
		c6.5,4.6,9.8,8,11.8,10.6c4,5.1,7.1,6.8,11.3,6.8c4.2,0,7-1.8,10.9-7c1.9-2.6,5.1-6,11.4-10.4c8.9-6.3,22.3-10.4,34.6-13.1
		c172.5-11,305-75.4,305-153.3C790.7,740,630.8,670.6,433.5,670.6z"/>
	<path class="st1" d="M485.7,893c172.5-25.3,305-173.9,305-353.4c0-197.3-159.9-357.2-357.2-357.2S76.3,342.4,76.3,539.7
		c0,174,124.4,318.9,289,350.7c13.7,6,30.1,16.2,40.4,33c6.5,10.5,9.8,18.5,11.8,24.5c4,11.8,7.1,15.7,11.3,15.7
		c4.2,0,7-4.1,10.9-16.1c1.9-5.9,5.1-13.8,11.4-24.1C460,908.8,473.4,899.3,485.7,893z M427.6,1063.5c19.7,0,35.7-16,35.7-35.7
		s-16-35.7-35.7-35.7s-35.7,16-35.7,35.7S407.8,1063.5,427.6,1063.5z"/>
</g>
<g id="Out_line">
</g>
<path class="st2" d="M225,431.5"/>
<path class="st2" d="M225,411.3"/>
<g>
	<path class="st3" d="M221.8,320.5H315c40.5-49.2,40.5-49.2,40.5-49.2L315,224.2h-93.2L195.7,255l-14.8,17.4L221.8,320.5z"/>
	<line class="st4" x1="195.7" y1="255" x2="341.5" y2="255"/>
	<line class="st4" x1="187.4" y1="280" x2="348.1" y2="280"/>
	<polyline class="st4" points="228,316.3 228,299.4 302.3,299.4 302.3,316.3 	"/>
	<line class="st4" x1="315" y1="255" x2="315" y2="280"/>
	<line class="st4" x1="245.3" y1="255" x2="245.3" y2="280"/>
	<line class="st4" x1="218" y1="255" x2="218" y2="280"/>
	<line class="st4" x1="286.2" y1="255" x2="286.2" y2="280"/>
	<path class="st3" d="M256.4,320.5C254,525.2,254,525.2,254,525.2l0,0"/>
	<path class="st3" d="M279.1,320.5c-2.5,204.8-2.5,204.8-2.5,204.8l0,0"/>
	<rect x="315" y="371.6" class="st3" width="74" height="137.8"/>
	<rect x="332" y="393.9" class="st4" width="38.4" height="44.6"/>
	<line class="st3" x1="279.1" y1="432.1" x2="315" y2="432.1"/>
	<line class="st3" x1="276.6" y1="457.6" x2="315" y2="457.6"/>
	<path class="st3" d="M389,405.7c29.7,0,29.7,0,29.7,0l0,0V361"/>
	<path class="st3" d="M393.9,438.6c18.6,1.2,18.6,1.2,18.6,1.2l0,0v-12.1"/>
	<path class="st3" d="M389,457.6c23.5,0.7,23.5,0.7,23.5,0.7l0,0v11.2"/>
	<g>
		<rect x="332" y="457.6" class="st5" width="9.5" height="9.5"/>
		<rect x="347.3" y="457.6" class="st5" width="9.5" height="9.5"/>
		<rect x="360.5" y="457.6" class="st5" width="9.5" height="9.5"/>
	</g>
	<g>
		<rect x="332.2" y="477.9" class="st5" width="9.5" height="9.5"/>
		<rect x="347.5" y="477.9" class="st5" width="9.5" height="9.5"/>
		<rect x="360.7" y="477.9" class="st5" width="9.5" height="9.5"/>
	</g>
</g>
</svg>
