<?xml version="1.0" encoding="UTF-8" standalone="no"?>
<!DOCTYPE svg PUBLIC "-//W3C//DTD SVG 1.1//EN" "http://www.w3.org/Graphics/SVG/1.1/DTD/svg11.dtd">
<svg width="100%" height="100%" viewBox="0 0 50 50" version="1.1" xmlns="http://www.w3.org/2000/svg" xmlns:xlink="http://www.w3.org/1999/xlink" xml:space="preserve" xmlns:serif="http://www.serif.com/" style="fill-rule:evenodd;clip-rule:evenodd;stroke-linejoin:round;stroke-miterlimit:2;">
    <g transform="matrix(0.675676,1.96307e-33,-1.96307e-33,0.675676,4.72973,1.33227e-15)">
        <path d="M30,41C13.431,41 0,46.828 0,54.017C0,60.357 10.445,65.638 24.275,66.798C25.429,67.017 26.803,67.389 27.667,68C28.209,68.383 28.487,68.674 28.657,68.891C28.993,69.322 29.256,69.464 29.606,69.464C29.956,69.464 30.194,69.315 30.518,68.877C30.678,68.661 30.947,68.374 31.477,68C32.223,67.473 33.349,67.123 34.385,66.896C48.875,65.975 60,60.56 60,54.017C60,46.828 46.569,41 30,41Z" style="fill:url(#_Linear1);"/>
        <path d="M34.385,59.682C48.875,57.56 60,45.079 60,30C60,13.431 46.569,0 30,0C13.431,0 0,13.431 0,30C0,44.611 10.445,56.782 24.275,59.454C25.429,59.96 26.803,60.818 27.667,62.225C28.209,63.108 28.487,63.778 28.657,64.279C28.993,65.273 29.256,65.6 29.606,65.6C29.956,65.6 30.194,65.257 30.518,64.247C30.678,63.749 30.947,63.087 31.477,62.225C32.223,61.01 33.349,60.205 34.385,59.682ZM29.5,74C31.157,74 32.5,72.657 32.5,71C32.5,69.343 31.157,68 29.5,68C27.843,68 26.5,69.343 26.5,71C26.5,72.657 27.843,74 29.5,74Z" style="fill:rgb(48,101,93);"/>
    </g>
    <g transform="matrix(0.547009,0,0,0.547009,7.49571,0.938805)">
        <g>
            <g transform="matrix(1,0,0,1,-3.55271e-15,2.08771)">
                <rect x="28" y="7" width="8" height="2" style="fill:white;"/>
            </g>
            <g transform="matrix(1,0,0,1,-3.55271e-15,2.08771)">
                <rect x="22" y="33" width="20" height="2" style="fill:white;"/>
            </g>
            <g transform="matrix(1,0,0,1,-3.55271e-15,2.08771)">
                <rect x="22" y="53" width="20" height="2" style="fill:white;"/>
            </g>
            <g transform="matrix(1,0,0,1,-3.55271e-15,2.08771)">
                <path d="M40,63L24,63C22.3,63 21,61.7 21,60L21,30C21,26.8 23.1,23.5 27,23.1L27,3C27,1.9 27.9,1 29,1L35,1C36.1,1 37,1.9 37,3L37,23.1C40.9,23.6 43,26.8 43,30L43,60C43,61.7 41.7,63 40,63ZM28,25C24.6,25 23,27.6 23,30L23,60C23,60.6 23.4,61 24,61L40,61C40.6,61 41,60.6 41,60L41,30C41,27.6 39.4,25 36,25L35,25L35,3L29,3L29,25L28,25Z" style="fill:white;fill-rule:nonzero;"/>
            </g>
            <g transform="matrix(1,0,0,1,-3.55271e-15,2.08771)">
                <path d="M26,40L24,40L24,30C24,28 25.4,26 28,26L28,28C26.5,28 26,29.1 26,30L26,40Z" style="fill:white;fill-rule:nonzero;"/>
            </g>
            <g transform="matrix(1,0,0,1,-3.55271e-15,2.08771)">
                <rect x="31" y="49" width="2" height="2" style="fill:white;"/>
            </g>
            <g transform="matrix(1,0,0,1,-3.55271e-15,2.08771)">
                <rect x="35" y="49" width="2" height="2" style="fill:white;"/>
            </g>
            <g transform="matrix(1,0,0,1,-3.55271e-15,2.08771)">
                <rect x="27" y="49" width="2" height="2" style="fill:white;"/>
            </g>
        </g>
    </g>
    <defs>
        <linearGradient id="_Linear1" x1="0" y1="0" x2="1" y2="0" gradientUnits="userSpaceOnUse" gradientTransform="matrix(1.14921e-15,-18.768,18.768,1.14921e-15,29.6057,74)"><stop offset="0" style="stop-color:black;stop-opacity:1"/><stop offset="0.5" style="stop-color:black;stop-opacity:0.25"/><stop offset="1" style="stop-color:black;stop-opacity:0"/></linearGradient>
    </defs>
</svg>
