<?xml version="1.0" encoding="UTF-8" standalone="no"?>
<!DOCTYPE svg PUBLIC "-//W3C//DTD SVG 1.1//EN" "http://www.w3.org/Graphics/SVG/1.1/DTD/svg11.dtd">
<svg width="100%" height="100%" viewBox="0 0 50 50" version="1.1" xmlns="http://www.w3.org/2000/svg" xmlns:xlink="http://www.w3.org/1999/xlink" xml:space="preserve" xmlns:serif="http://www.serif.com/" style="fill-rule:evenodd;clip-rule:evenodd;stroke-linejoin:round;stroke-miterlimit:2;">
    <g transform="matrix(0.675676,1.96307e-33,-1.96307e-33,0.675676,4.72973,1.33227e-15)">
        <path d="M30,41C13.431,41 0,46.828 0,54.017C0,60.357 10.445,65.638 24.275,66.798C25.429,67.017 26.803,67.389 27.667,68C28.209,68.383 28.487,68.674 28.657,68.891C28.993,69.322 29.256,69.464 29.606,69.464C29.956,69.464 30.194,69.315 30.518,68.877C30.678,68.661 30.947,68.374 31.477,68C32.223,67.473 33.349,67.123 34.385,66.896C48.875,65.975 60,60.56 60,54.017C60,46.828 46.569,41 30,41Z" style="fill:url(#_Linear1);"/>
        <path d="M34.385,59.682C48.875,57.56 60,45.079 60,30C60,13.431 46.569,0 30,0C13.431,0 0,13.431 0,30C0,44.611 10.445,56.782 24.275,59.454C25.429,59.96 26.803,60.818 27.667,62.225C28.209,63.108 28.487,63.778 28.657,64.279C28.993,65.273 29.256,65.6 29.606,65.6C29.956,65.6 30.194,65.257 30.518,64.247C30.678,63.749 30.947,63.087 31.477,62.225C32.223,61.01 33.349,60.205 34.385,59.682ZM29.5,74C31.157,74 32.5,72.657 32.5,71C32.5,69.343 31.157,68 29.5,68C27.843,68 26.5,69.343 26.5,71C26.5,72.657 27.843,74 29.5,74Z" style="fill:rgb(48,101,93);"/>
    </g>
    <g transform="matrix(1.05542,0,0,1.05542,5.33457,0.596816)">
        <g>
            <g transform="matrix(0.460999,0,0,0.460999,3.88081,2.62671)">
                <path d="M32,37C21.7,37 15,30.7 15,21L15,20L49,20L49,21C49,30.7 42.3,37 32,37ZM17,22C17.4,29.9 23.2,35 32,35C40.8,35 46.5,29.9 47,22L17,22Z" style="fill:white;fill-rule:nonzero;"/>
            </g>
            <g transform="matrix(0.460999,0,0,0.460999,3.88081,2.62671)">
                <rect x="22" y="5" width="9" height="2" style="fill:white;"/>
            </g>
            <g transform="matrix(0.460999,0,0,0.460999,3.88081,2.62671)">
                <rect x="33" y="5" width="4" height="2" style="fill:white;"/>
            </g>
            <g transform="matrix(0.460999,0,0,0.460999,3.88081,2.62671)">
                <path d="M56.8,63L7.2,63L29,55.3L29,40.9C18,39.6 11,32.2 11,22C11,15.8 16.8,2.2 17.1,1.6L17.3,1L46.6,1L46.9,1.6C47.2,2.2 53,15.8 53,22C53,32.2 46,39.6 35,40.9L35,55.3L56.8,63ZM18.8,61L45.1,61L33,56.7L33,39.1L33.9,39C44.5,38 51,31.5 51,22C51,16.9 46.5,5.7 45.3,3L18.7,3C17.5,5.7 13,16.9 13,22C13,31.5 19.5,38 30.1,39L31,39.1L31,56.7L18.8,61Z" style="fill:white;fill-rule:nonzero;"/>
            </g>
        </g>
    </g>
    <defs>
        <linearGradient id="_Linear1" x1="0" y1="0" x2="1" y2="0" gradientUnits="userSpaceOnUse" gradientTransform="matrix(1.14921e-15,-18.768,18.768,1.14921e-15,29.6057,74)"><stop offset="0" style="stop-color:black;stop-opacity:1"/><stop offset="0.5" style="stop-color:black;stop-opacity:0.25"/><stop offset="1" style="stop-color:black;stop-opacity:0"/></linearGradient>
    </defs>
</svg>
