<?xml version="1.0" encoding="UTF-8" standalone="no"?>
<!DOCTYPE svg PUBLIC "-//W3C//DTD SVG 1.1//EN" "http://www.w3.org/Graphics/SVG/1.1/DTD/svg11.dtd">
<svg width="100%" height="100%" viewBox="0 0 50 50" version="1.1" xmlns="http://www.w3.org/2000/svg" xmlns:xlink="http://www.w3.org/1999/xlink" xml:space="preserve" xmlns:serif="http://www.serif.com/" style="fill-rule:evenodd;clip-rule:evenodd;stroke-linejoin:round;stroke-miterlimit:2;">
    <g transform="matrix(0.675676,1.96307e-33,-1.96307e-33,0.675676,4.72973,1.33227e-15)">
        <path d="M30,41C13.431,41 0,46.828 0,54.017C0,60.357 10.445,65.638 24.275,66.798C25.429,67.017 26.803,67.389 27.667,68C28.209,68.383 28.487,68.674 28.657,68.891C28.993,69.322 29.256,69.464 29.606,69.464C29.956,69.464 30.194,69.315 30.518,68.877C30.678,68.661 30.947,68.374 31.477,68C32.223,67.473 33.349,67.123 34.385,66.896C48.875,65.975 60,60.56 60,54.017C60,46.828 46.569,41 30,41Z" style="fill:url(#_Linear1);"/>
        <path d="M34.385,59.682C48.875,57.56 60,45.079 60,30C60,13.431 46.569,0 30,0C13.431,0 0,13.431 0,30C0,44.611 10.445,56.782 24.275,59.454C25.429,59.96 26.803,60.818 27.667,62.225C28.209,63.108 28.487,63.778 28.657,64.279C28.993,65.273 29.256,65.6 29.606,65.6C29.956,65.6 30.194,65.257 30.518,64.247C30.678,63.749 30.947,63.087 31.477,62.225C32.223,61.01 33.349,60.205 34.385,59.682ZM29.5,74C31.157,74 32.5,72.657 32.5,71C32.5,69.343 31.157,68 29.5,68C27.843,68 26.5,69.343 26.5,71C26.5,72.657 27.843,74 29.5,74Z" style="fill:rgb(48,101,93);"/>
    </g>
    <g transform="matrix(0.0581095,0,0,0.0581095,10.124,1.78439)">
        <rect x="72" y="456" width="16" height="16" style="fill:white;fill-rule:nonzero;"/>
        <rect x="40" y="456" width="16" height="16" style="fill:white;fill-rule:nonzero;"/>
        <rect x="104" y="456" width="16" height="16" style="fill:white;fill-rule:nonzero;"/>
        <rect x="72" y="328" width="16" height="16" style="fill:white;fill-rule:nonzero;"/>
        <rect x="72" y="360" width="16" height="16" style="fill:white;fill-rule:nonzero;"/>
        <rect x="72" y="392" width="16" height="16" style="fill:white;fill-rule:nonzero;"/>
        <path d="M264,328L120,328L120,392L264,392L264,328ZM136,344L184,344L184,376L136,376L136,344ZM248,376L200,376L200,344L248,344L248,376Z" style="fill:white;fill-rule:nonzero;"/>
        <path d="M472,296L478.48,296C492.552,296 504,284.552 504,270.488C504,264.4 501.824,258.504 497.856,253.88L451.68,200L344,200L344,176C354.568,176 364.44,170.784 370.408,162.064C375.232,155.008 377.024,146.504 375.448,138.096C373.872,129.688 369.112,122.408 362.064,117.6L210.064,13.6C199.4,6.296 184.616,6.288 173.928,13.6L21.952,117.576C14.888,122.408 10.128,129.688 8.552,138.096C6.984,146.496 8.768,155 13.592,162.056C19.56,170.784 29.432,175.992 40,176L40,424L8,424L8,504L504,504L504,424L472,424L472,296ZM456,424L344,424L344,296L456,296L456,424ZM328,488L296,488L296,424L328,424L328,488ZM58.064,170.408L61.584,168L322.416,168L325.912,170.392C326.584,170.848 327.304,171.2 328,171.608L328,248L232,248L232,184L152,184L152,248L56,248L56,171.608C56.688,171.208 57.408,170.864 58.064,170.408ZM84.968,152L192,78.776L299.032,152L84.968,152ZM168,248L168,200L216,200L216,248L168,248ZM56,264L88,264L88,296L56,296L56,264ZM104,264L136,264L136,296L104,296L104,264ZM152,264L184,264L184,296L152,296L152,264ZM200,264L232,264L232,296L200,296L200,264ZM248,264L280,264L280,296L248,296L248,264ZM296,264L328,264L328,296L296,296L296,264ZM444.32,216L485.704,264.28C487.184,266.008 488,268.208 488,270.488C488,275.736 483.728,280 478.48,280L344,280L344,216L444.32,216ZM26.792,153.032C24.384,149.504 23.488,145.24 24.272,141.048C25.064,136.848 27.44,133.208 30.976,130.792L182.968,26.8C188.304,23.144 195.696,23.144 201.032,26.8L353.04,130.808C356.56,133.216 358.936,136.848 359.728,141.04C360.512,145.24 359.616,149.504 357.208,153.032C352.384,160.064 342.008,162.032 334.952,157.2L192,59.384L49.016,157.208C42.04,162.016 31.608,160.064 26.792,153.032ZM56,312L328,312L328,408L280,408L280,488L200,488L200,408L136,408L136,424L56,424L56,312ZM184,488L152,488L152,424L184,424L184,488ZM24,440L136,440L136,488L24,488L24,440ZM488,488L344,488L344,440L488,440L488,488Z" style="fill:white;fill-rule:nonzero;"/>
        <path d="M440,392L440,328L360,328L360,392L440,392ZM376,344L424,344L424,376L376,376L376,344Z" style="fill:white;fill-rule:nonzero;"/>
        <rect x="424" y="456" width="16" height="16" style="fill:white;fill-rule:nonzero;"/>
        <rect x="456" y="456" width="16" height="16" style="fill:white;fill-rule:nonzero;"/>
        <rect x="360" y="456" width="16" height="16" style="fill:white;fill-rule:nonzero;"/>
        <rect x="392" y="456" width="16" height="16" style="fill:white;fill-rule:nonzero;"/>
    </g>
    <g id="Out_line">
    </g>
    <defs>
        <linearGradient id="_Linear1" x1="0" y1="0" x2="1" y2="0" gradientUnits="userSpaceOnUse" gradientTransform="matrix(1.14921e-15,-18.768,18.768,1.14921e-15,29.6057,74)"><stop offset="0" style="stop-color:black;stop-opacity:1"/><stop offset="0.5" style="stop-color:black;stop-opacity:0.25098"/><stop offset="1" style="stop-color:black;stop-opacity:0"/></linearGradient>
    </defs>
</svg>
