<?xml version="1.0" encoding="UTF-8" standalone="no"?>
<!DOCTYPE svg PUBLIC "-//W3C//DTD SVG 1.1//EN" "http://www.w3.org/Graphics/SVG/1.1/DTD/svg11.dtd">
<svg width="100%" height="100%" viewBox="0 0 50 50" version="1.1" xmlns="http://www.w3.org/2000/svg" xmlns:xlink="http://www.w3.org/1999/xlink" xml:space="preserve" xmlns:serif="http://www.serif.com/" style="fill-rule:evenodd;clip-rule:evenodd;stroke-linejoin:round;stroke-miterlimit:2;">
    <g transform="matrix(0.675676,1.96307e-33,-1.96307e-33,0.675676,4.72973,1.33227e-15)">
        <path d="M30,41C13.431,41 0,46.828 0,54.017C0,60.357 10.445,65.638 24.275,66.798C25.429,67.017 26.803,67.389 27.667,68C28.209,68.383 28.487,68.674 28.657,68.891C28.993,69.322 29.256,69.464 29.606,69.464C29.956,69.464 30.194,69.315 30.518,68.877C30.678,68.661 30.947,68.374 31.477,68C32.223,67.473 33.349,67.123 34.385,66.896C48.875,65.975 60,60.56 60,54.017C60,46.828 46.569,41 30,41Z" style="fill:url(#_Linear1);"/>
        <path d="M34.385,59.682C48.875,57.56 60,45.079 60,30C60,13.431 46.569,0 30,0C13.431,0 0,13.431 0,30C0,44.611 10.445,56.782 24.275,59.454C25.429,59.96 26.803,60.818 27.667,62.225C28.209,63.108 28.487,63.778 28.657,64.279C28.993,65.273 29.256,65.6 29.606,65.6C29.956,65.6 30.194,65.257 30.518,64.247C30.678,63.749 30.947,63.087 31.477,62.225C32.223,61.01 33.349,60.205 34.385,59.682ZM29.5,74C31.157,74 32.5,72.657 32.5,71C32.5,69.343 31.157,68 29.5,68C27.843,68 26.5,69.343 26.5,71C26.5,72.657 27.843,74 29.5,74Z" style="fill:rgb(48,101,93);"/>
    </g>
    <g transform="matrix(1,0,0,1,3.55271e-15,-2.08771)">
        <g transform="matrix(0.0764442,0,0,0.0764442,6.65338,4.03623)">
            <path d="M339.904,161.776L334.768,144.872C328.244,125.67 307.389,115.393 288.187,121.917C277.385,125.587 268.902,134.07 265.232,144.872L260.096,161.776C255.774,176.032 254.867,191.105 257.448,205.776C259.802,218.128 267.644,228.74 278.76,234.616L273.008,363.2C272.238,370.377 274.566,377.542 279.408,382.896C289.821,394.286 307.497,395.078 318.887,384.665C319.503,384.102 320.093,383.512 320.656,382.896C325.39,377.694 327.714,370.739 327.056,363.736L321.272,234.6C332.373,228.721 340.202,218.116 342.552,205.776C345.133,191.105 344.226,176.032 339.904,161.776ZM326.792,202.992C325.06,211.866 318.736,219.147 310.192,222.104C306.949,223.323 304.86,226.491 305.016,229.952L311.096,365C311.376,367.649 310.502,370.29 308.696,372.248C303.879,377.017 296.121,377.017 291.304,372.248C289.408,370.132 288.547,367.284 288.952,364.472L294.984,229.952C295.14,226.491 293.051,223.323 289.808,222.104C281.264,219.147 274.94,211.866 273.208,202.992C271.068,190.812 271.822,178.299 275.408,166.464L280.544,149.552C284.518,138.807 296.45,133.318 307.196,137.292C312.877,139.393 317.355,143.872 319.456,149.552L324.592,166.464C328.174,178.3 328.928,190.812 326.792,202.992Z" style="fill:white;fill-rule:nonzero;"/>
        </g>
        <g transform="matrix(0.0764442,0,0,0.0764442,6.65338,4.03623)">
            <path d="M216,120C211.582,120 208,123.582 208,128L208,196.688L186.344,218.344C184.742,219.94 183.89,222.141 184,224.4L191,364.4C191.167,367.419 190.071,370.372 187.976,372.552C183.597,376.97 176.465,377.002 172.046,372.622C172.022,372.599 171.999,372.575 171.976,372.552C169.88,370.372 168.785,367.419 168.952,364.4L176,224.4C176.112,222.142 175.263,219.942 173.664,218.344L152,196.688L152,128C152,123.582 148.418,120 144,120C139.582,120 136,123.582 136,128L136,200C136,202.122 136.844,204.156 138.344,205.656L159.832,227.152L153.008,363.624C152.282,378.531 163.778,391.205 178.685,391.931C193.592,392.657 206.266,381.161 206.992,366.254C207.035,365.378 207.035,364.501 206.992,363.625L200.168,227.153L221.656,205.657C223.156,204.157 224,202.123 224,200.001L224,128.001C224,123.582 220.418,120 216,120Z" style="fill:white;fill-rule:nonzero;"/>
        </g>
        <g transform="matrix(0.0764442,0,0,0.0764442,6.65338,4.03623)">
            <path d="M168,120C163.582,120 160,123.582 160,128L160,192C160,196.418 163.582,200 168,200C172.418,200 176,196.418 176,192L176,128C176,123.582 172.418,120 168,120Z" style="fill:white;fill-rule:nonzero;"/>
        </g>
        <g transform="matrix(0.0764442,0,0,0.0764442,6.65338,4.03623)">
            <path d="M192,120C187.582,120 184,123.582 184,128L184,192C184,196.418 187.582,200 192,200C196.418,200 200,196.418 200,192L200,128C200,123.582 196.418,120 192,120Z" style="fill:white;fill-rule:nonzero;"/>
        </g>
        <g transform="matrix(0.0764442,0,0,0.0764442,6.65338,4.03623)">
            <path d="M240,0C107.452,0 0,107.452 0,240C0,372.548 107.452,480 240,480C372.548,480 480,372.548 480,240C479.85,107.514 372.486,0.15 240,0ZM240,464C116.288,464 16,363.712 16,240C16,116.288 116.288,16 240,16C363.712,16 464,116.288 464,240C463.859,363.653 363.653,463.859 240,464Z" style="fill:white;fill-rule:nonzero;"/>
        </g>
        <g transform="matrix(0.0764442,0,0,0.0764442,6.65338,4.03623)">
            <path d="M265.969,390.172C265.54,385.775 261.627,382.558 257.229,382.987C257.126,382.997 257.023,383.009 256.92,383.023L256.952,383.015C245.689,384.323 234.311,384.323 223.048,383.015C218.658,382.5 214.683,385.641 214.168,390.031C213.653,394.421 216.794,398.396 221.184,398.911C233.675,400.37 246.293,400.37 258.784,398.911C263.181,398.483 266.398,394.57 265.969,390.172Z" style="fill:white;fill-rule:nonzero;"/>
        </g>
        <g transform="matrix(0.0764442,0,0,0.0764442,6.65338,4.03623)">
            <path d="M362.4,136.912C359.561,133.527 354.515,133.084 351.13,135.924C351.119,135.933 351.108,135.943 351.096,135.952C347.719,138.8 347.289,143.846 350.136,147.224C398.371,204.484 394.681,289.153 341.648,342C338.518,345.119 338.509,350.186 341.628,353.316C344.747,356.446 349.814,356.455 352.944,353.336C411.881,294.623 415.991,200.541 362.4,136.912Z" style="fill:white;fill-rule:nonzero;"/>
        </g>
        <g transform="matrix(0.0764442,0,0,0.0764442,6.65338,4.03623)">
            <g>
                <path d="M186.392,105.744C186.387,105.744 186.382,105.743 186.377,105.743C186.369,105.743 186.361,105.744 186.352,105.744L186.392,105.744Z" style="fill:white;fill-rule:nonzero;"/>
                <path d="M277.736,84.472C246.471,76.979 213.681,78.993 183.568,90.256C179.432,91.811 177.341,96.425 178.896,100.56C180.068,103.677 183.048,105.74 186.377,105.743C187.334,105.738 188.282,105.563 189.176,105.224C216.294,95.083 245.822,93.272 273.976,100.024C278.271,101.062 282.594,98.423 283.632,94.128C284.67,89.833 282.031,85.51 277.736,84.472Z" style="fill:white;fill-rule:nonzero;"/>
            </g>
        </g>
        <g transform="matrix(0.0764442,0,0,0.0764442,6.65338,4.03623)">
            <path d="M137.992,341.6C111.023,314.677 95.908,278.108 96,240C95.921,209.554 105.565,179.878 123.528,155.296C126.183,151.764 125.472,146.749 121.94,144.094C118.408,141.439 113.393,142.15 110.738,145.682C110.691,145.745 110.645,145.808 110.6,145.872C64.347,209.46 71.153,297.231 126.656,352.928C129.784,356.058 134.858,356.06 137.988,352.932C141.118,349.804 141.12,344.73 137.992,341.6Z" style="fill:white;fill-rule:nonzero;"/>
        </g>
    </g>
    <g id="Out_line">
    </g>
    <defs>
        <linearGradient id="_Linear1" x1="0" y1="0" x2="1" y2="0" gradientUnits="userSpaceOnUse" gradientTransform="matrix(1.14921e-15,-18.768,18.768,1.14921e-15,29.6057,74)"><stop offset="0" style="stop-color:black;stop-opacity:1"/><stop offset="0.5" style="stop-color:black;stop-opacity:0.25098"/><stop offset="1" style="stop-color:black;stop-opacity:0"/></linearGradient>
    </defs>
</svg>
