<?xml version="1.0" encoding="UTF-8" standalone="no"?>
<!DOCTYPE svg PUBLIC "-//W3C//DTD SVG 1.1//EN" "http://www.w3.org/Graphics/SVG/1.1/DTD/svg11.dtd">
<svg width="100%" height="100%" viewBox="0 0 50 50" version="1.1" xmlns="http://www.w3.org/2000/svg" xmlns:xlink="http://www.w3.org/1999/xlink" xml:space="preserve" xmlns:serif="http://www.serif.com/" style="fill-rule:evenodd;clip-rule:evenodd;stroke-linejoin:round;stroke-miterlimit:2;">
    <g transform="matrix(0.675676,1.96307e-33,-1.96307e-33,0.675676,4.72973,1.33227e-15)">
        <path d="M30,41C13.431,41 0,46.828 0,54.017C0,60.357 10.445,65.638 24.275,66.798C25.429,67.017 26.803,67.389 27.667,68C28.209,68.383 28.487,68.674 28.657,68.891C28.993,69.322 29.256,69.464 29.606,69.464C29.956,69.464 30.194,69.315 30.518,68.877C30.678,68.661 30.947,68.374 31.477,68C32.223,67.473 33.349,67.123 34.385,66.896C48.875,65.975 60,60.56 60,54.017C60,46.828 46.569,41 30,41Z" style="fill:url(#_Linear1);"/>
        <path d="M34.385,59.682C48.875,57.56 60,45.079 60,30C60,13.431 46.569,0 30,0C13.431,0 0,13.431 0,30C0,44.611 10.445,56.782 24.275,59.454C25.429,59.96 26.803,60.818 27.667,62.225C28.209,63.108 28.487,63.778 28.657,64.279C28.993,65.273 29.256,65.6 29.606,65.6C29.956,65.6 30.194,65.257 30.518,64.247C30.678,63.749 30.947,63.087 31.477,62.225C32.223,61.01 33.349,60.205 34.385,59.682ZM29.5,74C31.157,74 32.5,72.657 32.5,71C32.5,69.343 31.157,68 29.5,68C27.843,68 26.5,69.343 26.5,71C26.5,72.657 27.843,74 29.5,74Z" style="fill:rgb(48,101,93);"/>
    </g>
    <g transform="matrix(0.069215,0,0,0.069215,23.2696,4.36252)">
        <g>
            <g transform="matrix(1,0,0,1,-231,2.08771)">
                <path d="M160.424,160.607L66.496,160.607C60.973,160.607 56.496,156.13 56.496,150.607L56.496,59.975C56.496,54.452 60.973,49.975 66.496,49.975L160.424,49.975C165.947,49.975 170.424,54.452 170.424,59.975L170.424,150.608C170.424,156.13 165.947,160.607 160.424,160.607ZM76.496,140.607L150.424,140.607L150.424,69.975L76.496,69.975L76.496,140.607Z" style="fill:white;fill-rule:nonzero;"/>
            </g>
            <g transform="matrix(1,0,0,1,-231,2.08771)">
                <path d="M302.964,160.607L209.036,160.607C203.513,160.607 199.036,156.13 199.036,150.607L199.036,59.975C199.036,54.452 203.513,49.975 209.036,49.975L302.964,49.975C308.487,49.975 312.964,54.452 312.964,59.975L312.964,150.608C312.964,156.13 308.487,160.607 302.964,160.607ZM219.036,140.607L292.964,140.607L292.964,69.975L219.036,69.975L219.036,140.607Z" style="fill:white;fill-rule:nonzero;"/>
            </g>
            <g transform="matrix(1,0,0,1,-231,2.08771)">
                <path d="M445.504,160.607L351.576,160.607C346.053,160.607 341.576,156.13 341.576,150.607L341.576,59.975C341.576,54.452 346.053,49.975 351.576,49.975L445.504,49.975C451.027,49.975 455.504,54.452 455.504,59.975L455.504,150.608C455.504,156.13 451.027,160.607 445.504,160.607ZM361.576,140.607L435.504,140.607L435.504,69.975L361.576,69.975L361.576,140.607Z" style="fill:white;fill-rule:nonzero;"/>
            </g>
            <g transform="matrix(1,0,0,1,-231,2.08771)">
                <path d="M110.095,134.744C107.458,134.744 104.91,133.701 103.024,131.815L85.39,114.18C81.485,110.275 81.485,103.943 85.39,100.037C89.295,96.132 95.627,96.132 99.533,100.037L108.287,108.791L125.985,80.53C128.916,75.849 135.087,74.431 139.768,77.363C144.449,80.294 145.867,86.465 142.935,91.146L118.572,130.051C116.956,132.633 114.251,134.336 111.224,134.679C110.846,134.723 110.47,134.744 110.095,134.744Z" style="fill:white;fill-rule:nonzero;"/>
            </g>
            <g transform="matrix(1,0,0,1,-231,2.08771)">
                <path d="M306.256,462.026C303.554,462.026 300.882,460.933 298.934,458.84L241.03,396.661L219.989,391.447L175.282,410.069L147.057,426.984C144.748,428.368 141.978,428.762 139.374,428.078C136.77,427.394 134.553,425.689 133.222,423.348L114.933,391.172C112.537,386.956 113.511,381.629 117.243,378.533L187.338,320.399L95.547,182.238C95.098,181.561 94.733,180.832 94.459,180.067C93.627,177.737 93.07,175.324 92.804,172.896C92.656,171.631 92.579,170.365 92.579,169.098C92.579,155.394 101.1,142.986 114.288,137.487C114.297,137.483 114.305,137.48 114.314,137.476C114.444,137.417 114.576,137.361 114.709,137.307L115.602,136.941C118.363,135.802 122.144,134.242 126.563,134.242C128.394,134.242 130.181,134.513 131.876,135.046C145.734,139.411 159.082,155.553 170.312,170.767C170.437,170.936 170.556,171.109 170.67,171.286L206.717,227.188L234.784,210.929C234.957,210.829 235.132,210.734 235.31,210.644L288.887,183.75C293.01,181.681 298.011,182.699 300.996,186.214L379.3,278.423C380.473,279.805 381.249,281.48 381.544,283.268L389.436,331.084L422.236,380.195C423.745,382.454 424.27,385.229 423.69,387.883C423.11,390.537 421.476,392.841 419.163,394.265L311.495,460.541C309.872,461.54 308.057,462.026 306.256,462.026ZM219.19,370.947C219.996,370.947 220.804,371.044 221.595,371.24L248.726,377.963C250.609,378.43 252.316,379.435 253.639,380.855L307.987,439.214L399.841,382.672L371.606,340.395C370.816,339.212 370.287,337.874 370.055,336.47L362.263,289.257L290.839,205.149L244.552,228.383L208.749,249.124C204.241,251.738 198.479,250.448 195.513,246.162L190.362,238.718C190.3,238.629 190.24,238.538 190.181,238.447L154.035,182.391C141.928,166.019 132.615,156.569 126.336,154.28C125.618,154.444 124.149,155.05 123.232,155.428L122.529,155.716C122.284,155.828 122.06,155.921 121.861,155.998C116.219,158.404 112.581,163.531 112.581,169.097C112.581,169.578 112.613,170.082 112.678,170.64C112.743,171.232 112.847,171.797 112.99,172.348L208.975,316.822C211.805,321.081 210.966,326.789 207.03,330.053L136.466,388.576L145.556,404.568L165.627,392.539C166.043,392.29 166.476,392.072 166.922,391.886L215.347,371.716C216.571,371.206 217.878,370.947 219.19,370.947Z" style="fill:white;fill-rule:nonzero;"/>
            </g>
        </g>
    </g>
    <defs>
        <linearGradient id="_Linear1" x1="0" y1="0" x2="1" y2="0" gradientUnits="userSpaceOnUse" gradientTransform="matrix(1.14921e-15,-18.768,18.768,1.14921e-15,29.6057,74)"><stop offset="0" style="stop-color:black;stop-opacity:1"/><stop offset="0.5" style="stop-color:black;stop-opacity:0.25"/><stop offset="1" style="stop-color:black;stop-opacity:0"/></linearGradient>
    </defs>
</svg>
