<?xml version="1.0" encoding="UTF-8" standalone="no"?>
<!DOCTYPE svg PUBLIC "-//W3C//DTD SVG 1.1//EN" "http://www.w3.org/Graphics/SVG/1.1/DTD/svg11.dtd">
<svg width="100%" height="100%" viewBox="0 0 50 50" version="1.1" xmlns="http://www.w3.org/2000/svg" xmlns:xlink="http://www.w3.org/1999/xlink" xml:space="preserve" xmlns:serif="http://www.serif.com/" style="fill-rule:evenodd;clip-rule:evenodd;stroke-linejoin:round;stroke-miterlimit:2;">
    <g transform="matrix(0.675676,1.96307e-33,-1.96307e-33,0.675676,4.72973,1.33227e-15)">
        <path d="M30,41C13.431,41 0,46.828 0,54.017C0,60.357 10.445,65.638 24.275,66.798C25.429,67.017 26.803,67.389 27.667,68C28.209,68.383 28.487,68.674 28.657,68.891C28.993,69.322 29.256,69.464 29.606,69.464C29.956,69.464 30.194,69.315 30.518,68.877C30.678,68.661 30.947,68.374 31.477,68C32.223,67.473 33.349,67.123 34.385,66.896C48.875,65.975 60,60.56 60,54.017C60,46.828 46.569,41 30,41Z" style="fill:url(#_Linear1);"/>
        <path d="M34.385,59.682C48.875,57.56 60,45.079 60,30C60,13.431 46.569,0 30,0C13.431,0 0,13.431 0,30C0,44.611 10.445,56.782 24.275,59.454C25.429,59.96 26.803,60.818 27.667,62.225C28.209,63.108 28.487,63.778 28.657,64.279C28.993,65.273 29.256,65.6 29.606,65.6C29.956,65.6 30.194,65.257 30.518,64.247C30.678,63.749 30.947,63.087 31.477,62.225C32.223,61.01 33.349,60.205 34.385,59.682ZM29.5,74C31.157,74 32.5,72.657 32.5,71C32.5,69.343 31.157,68 29.5,68C27.843,68 26.5,69.343 26.5,71C26.5,72.657 27.843,74 29.5,74Z" style="fill:rgb(48,101,93);"/>
    </g>
    <g transform="matrix(1.27803,0,0,1.27803,9.66371,2.75334)">
        <g>
            <g id="Rectangle-11--Stroke-" serif:id="Rectangle 11 (Stroke)" transform="matrix(1,0,0,1,-3.55271e-15,2.08771)">
                <path d="M2.25,3C2.25,1.481 3.481,0.25 5,0.25L19,0.25C20.519,0.25 21.75,1.481 21.75,3L21.75,19C21.75,20.519 20.519,21.75 19,21.75L5,21.75C3.481,21.75 2.25,20.519 2.25,19L2.25,3ZM5,1.75C4.31,1.75 3.75,2.31 3.75,3L3.75,19C3.75,19.69 4.31,20.25 5,20.25L19,20.25C19.69,20.25 20.25,19.69 20.25,19L20.25,3C20.25,2.31 19.69,1.75 19,1.75L5,1.75Z" style="fill:white;"/>
            </g>
            <g id="Rectangle-14--Stroke-" serif:id="Rectangle 14 (Stroke)" transform="matrix(1,0,0,1,-3.55271e-15,2.08771)">
                <path d="M2.25,4C2.25,3.586 2.586,3.25 3,3.25L21,3.25C21.414,3.25 21.75,3.586 21.75,4L21.75,13C21.75,13.414 21.414,13.75 21,13.75L3,13.75C2.586,13.75 2.25,13.414 2.25,13L2.25,4ZM3.75,4.75L3.75,12.25L20.25,12.25L20.25,4.75L3.75,4.75Z" style="fill:white;"/>
            </g>
            <g id="Rectangle-12--Stroke-" serif:id="Rectangle 12 (Stroke)" transform="matrix(1,0,0,1,-3.55271e-15,2.08771)">
                <path d="M4.25,21C4.25,20.586 4.586,20.25 5,20.25L8,20.25C8.414,20.25 8.75,20.586 8.75,21L8.75,22C8.75,22.967 7.967,23.75 7,23.75L6,23.75C5.034,23.75 4.25,22.967 4.25,22L4.25,21ZM5.75,21.75L5.75,22C5.75,22.138 5.862,22.25 6,22.25L7,22.25C7.138,22.25 7.25,22.138 7.25,22L7.25,21.75L5.75,21.75Z" style="fill:white;"/>
            </g>
            <g id="Rectangle-17--Stroke-" serif:id="Rectangle 17 (Stroke)" transform="matrix(1,0,0,1,-3.55271e-15,2.08771)">
                <path d="M15.25,21C15.25,20.586 15.586,20.25 16,20.25L19,20.25C19.414,20.25 19.75,20.586 19.75,21L19.75,22C19.75,22.967 18.967,23.75 18,23.75L17,23.75C16.034,23.75 15.25,22.967 15.25,22L15.25,21ZM16.75,21.75L16.75,22C16.75,22.138 16.862,22.25 17,22.25L18,22.25C18.138,22.25 18.25,22.138 18.25,22L18.25,21.75L16.75,21.75Z" style="fill:white;"/>
            </g>
            <g id="Vector-14--Stroke-" serif:id="Vector 14 (Stroke)" transform="matrix(1,0,0,1,-3.55271e-15,2.08771)">
                <path d="M20.25,6C20.25,5.586 20.586,5.25 21,5.25L22,5.25C22.967,5.25 23.75,6.034 23.75,7L23.75,10C23.75,10.414 23.414,10.75 23,10.75C22.586,10.75 22.25,10.414 22.25,10L22.25,7C22.25,6.862 22.138,6.75 22,6.75L21,6.75C20.586,6.75 20.25,6.414 20.25,6Z" style="fill:white;"/>
            </g>
            <g id="Vector-15--Stroke-" serif:id="Vector 15 (Stroke)" transform="matrix(1,0,0,1,-3.55271e-15,2.08771)">
                <path d="M3.75,6C3.75,5.586 3.414,5.25 3,5.25L2,5.25C1.034,5.25 0.25,6.034 0.25,7L0.25,10C0.25,10.414 0.586,10.75 1,10.75C1.414,10.75 1.75,10.414 1.75,10L1.75,7C1.75,6.862 1.862,6.75 2,6.75L3,6.75C3.414,6.75 3.75,6.414 3.75,6Z" style="fill:white;"/>
            </g>
            <g id="Rectangle-18--Stroke-" serif:id="Rectangle 18 (Stroke)" transform="matrix(1,0,0,1,-3.55271e-15,2.08771)">
                <path d="M2.25,15C2.25,14.586 2.586,14.25 3,14.25L5,14.25C6.519,14.25 7.75,15.481 7.75,17L7.75,18C7.75,18.414 7.414,18.75 7,18.75L3,18.75C2.586,18.75 2.25,18.414 2.25,18L2.25,15ZM3.75,15.75L3.75,17.25L6.25,17.25L6.25,17C6.25,16.31 5.69,15.75 5,15.75L3.75,15.75Z" style="fill:white;"/>
            </g>
            <g id="Rectangle-19--Stroke-" serif:id="Rectangle 19 (Stroke)" transform="matrix(1,0,0,1,-3.55271e-15,2.08771)">
                <path d="M21.75,15C21.75,14.586 21.414,14.25 21,14.25L19,14.25C17.481,14.25 16.25,15.481 16.25,17L16.25,18C16.25,18.414 16.586,18.75 17,18.75L21,18.75C21.414,18.75 21.75,18.414 21.75,18L21.75,15ZM20.25,15.75L20.25,17.25L17.75,17.25L17.75,17C17.75,16.31 18.31,15.75 19,15.75L20.25,15.75Z" style="fill:white;"/>
            </g>
            <g id="Vector-16--Stroke-" serif:id="Vector 16 (Stroke)" transform="matrix(1,0,0,1,-3.55271e-15,2.08771)">
                <path d="M10.25,18C10.25,17.586 10.586,17.25 11,17.25L13,17.25C13.414,17.25 13.75,17.586 13.75,18C13.75,18.414 13.414,18.75 13,18.75L11,18.75C10.586,18.75 10.25,18.414 10.25,18Z" style="fill:white;"/>
            </g>
        </g>
    </g>
    <defs>
        <linearGradient id="_Linear1" x1="0" y1="0" x2="1" y2="0" gradientUnits="userSpaceOnUse" gradientTransform="matrix(1.14921e-15,-18.768,18.768,1.14921e-15,29.6057,74)"><stop offset="0" style="stop-color:black;stop-opacity:1"/><stop offset="0.5" style="stop-color:black;stop-opacity:0.25"/><stop offset="1" style="stop-color:black;stop-opacity:0"/></linearGradient>
    </defs>
</svg>
